#!OML:ASF E:\acrobat2\Project_11_07_03\Capture day 1\Session 1\Acrobat.ASF
:FULLY-SPECIFIED
:DEGREES
976
root 17.0872 7.21817 -7.35527 -336.749 -13.4834 8.65677
lowerback 33.1359 -1.29641 0.6536
upperback 16.4416 -1.73059 -3.97506
thorax 0.836959 -0.623491 -4.00484
lowerneck 3.41117 4.59195 2.74913
upperneck -35.5513 5.86341 -5.33138
head -11.9448 3.02307 -3.15
rclavicle -3.18055e-015 -2.21645e-014
rhumerus 33.5412 20.9378 -72.7005
rradius 39.2346
rwrist 11.1232
rhand -42.9451 -81.7518
rfingers 7.12502
rthumb -15.8054 -608.873
lclavicle -3.18055e-015 -2.21645e-014
lhumerus 48.3387 -25.148 30.2853
lradius 46.6569
lwrist 7.44558
lhand -47.8498 -51.4521
lfingers 7.12502
lthumb -20.524 -22.517
rfemur -132.186 -31.1149 42.8694
rtibia 15.2199
rfoot -212.8 12.4283
rtoes -16.3705
lfemur -141.902 26.7684 -40.4126
ltibia 43.9612
lfoot -556.639 6.77809
ltoes 8.43734
977
root 17.0931 7.20794 -7.35189 -336.739 -13.5445 8.54268
lowerback 33.1081 -1.30167 0.729008
upperback 16.4306 -1.71853 -3.95937
thorax 0.83443 -0.615268 -4.03214
lowerneck 3.49165 4.57095 2.7968
upperneck -35.5501 5.82905 -5.35921
head -11.9592 3.00328 -3.16829
rclavicle 9.54166e-015 -2.5842e-014
rhumerus 33.4549 20.995 -72.7623
rradius 39.3199
rwrist 11.2464
rhand -42.9265 -81.8023
rfingers 7.12502
rthumb -15.7876 -608.822
lclavicle 9.54166e-015 -2.5842e-014
lhumerus 48.152 -25.1245 30.4488
lradius 46.7391
lwrist 7.25495
lhand -47.8635 -51.3132
lfingers 7.12502
lthumb -20.5373 -22.3795
rfemur -132.216 -31.0651 42.9579
rtibia 15.1193
rfoot -212.987 12.1071
rtoes -15.2842
lfemur -141.997 26.8242 -40.3923
ltibia 43.842
lfoot -556.727 6.74894
ltoes 8.4907
978
root 17.0986 7.19916 -7.34912 -336.767 -13.6141 8.44688
lowerback 33.1275 -1.30008 0.778639
upperback 16.4257 -1.70548 -3.94845
thorax 0.822172 -0.60769 -4.05043
lowerneck 3.53106 4.54427 2.82594
upperneck -35.529 5.78342 -5.38059
head -11.9584 2.98029 -3.17718
rclavicle -5.04913e-014 3.08116e-015
rhumerus 33.3911 21.0724 -72.782
rradius 39.3926
rwrist 11.3298
rhand -42.9145 -81.8508
rfingers 7.12502
rthumb -15.776 -608.772
lclavicle -5.04913e-014 3.08116e-015
lhumerus 47.9984 -25.1156 30.5389
lradius 46.8338
lwrist 7.14746
lhand -47.9087 -51.2369
lfingers 7.12502
lthumb -20.5807 -22.3079
rfemur -132.223 -31.0245 43.0304
rtibia 15.0343
rfoot -213.121 11.9158
rtoes -14.5475
lfemur -142.045 26.8991 -40.3708
ltibia 43.735
lfoot -556.803 6.72743
ltoes 8.54277
979
root 17.1049 7.19114 -7.34572 -336.816 -13.66 8.39474
lowerback 33.1469 -1.31225 0.829508
upperback 16.4384 -1.70814 -3.94669
thorax 0.827518 -0.606437 -4.07482
lowerneck 3.50833 4.5067 2.82296
upperneck -35.4786 5.72314 -5.37284
head -11.9363 2.95149 -3.16413
rclavicle 5.56597e-015 -1.78906e-015
rhumerus 33.365 21.1471 -72.751
rradius 39.4508
rwrist 11.3736
rhand -42.9163 -81.9004
rfingers 7.12502
rthumb -15.7778 -608.723
lclavicle 5.56597e-015 -1.78906e-015
lhumerus 47.9098 -25.1329 30.5089
lradius 46.9387
lwrist 7.13776
lhand -48.0044 -51.2116
lfingers 7.12502
lthumb -20.6726 -22.2926
rfemur -132.228 -31.0864 43.048
rtibia 14.9438
rfoot -213.284 11.577
rtoes -13.3794
lfemur -142.053 26.9343 -40.3479
ltibia 43.634
lfoot -556.869 6.71082
ltoes 8.64799
980
root 17.113 7.18406 -7.34066 -336.892 -13.6552 8.3841
lowerback 33.1672 -1.35435 0.913147
upperback 16.4716 -1.7371 -3.95072
thorax 0.851779 -0.614708 -4.11547
lowerneck 3.41655 4.45034 2.78422
upperneck -35.3929 5.64065 -5.31891
head -11.8901 2.91157 -3.12087
rclavicle 3.81667e-014 3.48867e-014
rhumerus 33.3851 21.213 -72.6569
rradius 39.4924
rwrist 11.3751
rhand -42.9226 -81.9599
rfingers 7.12502
rthumb -15.7838 -608.664
lclavicle 3.81667e-014 3.48867e-014
lhumerus 47.8697 -25.1592 30.4134
lradius 47.0521
lwrist 7.18482
lhand -48.1122 -51.2083
lfingers 7.12502
lthumb -20.7762 -22.3006
rfemur -132.276 -31.2401 43.0895
rtibia 14.881
rfoot -213.34 11.4803
rtoes -12.9888
lfemur -142.008 26.903 -40.3019
ltibia 43.5367
lfoot -556.929 6.69893
ltoes 8.84718
981
root 17.1228 7.177 -7.33386 -336.965 -13.5978 8.3977
lowerback 33.1583 -1.42507 1.03631
upperback 16.5158 -1.78878 -3.95275
thorax 0.895863 -0.630998 -4.16917
lowerneck 3.27948 4.36603 2.71104
upperneck -35.2809 5.52443 -5.21321
head -11.8292 2.85386 -3.04602
rclavicle 1.94809e-014 3.97569e-016
rhumerus 33.4289 21.2734 -72.5106
rradius 39.5319
rwrist 11.3468
rhand -42.9227 -82.0208
rfingers 7.12502
rthumb -15.7839 -608.603
lclavicle 1.94809e-014 3.97569e-016
lhumerus 47.8443 -25.1845 30.3187
lradius 47.1676
lwrist 7.25634
lhand -48.1969 -51.2129
lfingers 7.12502
lthumb -20.8576 -22.3141
rfemur -132.351 -31.5039 43.1207
rtibia 14.819
rfoot -213.4 11.2953
rtoes -12.4071
lfemur -141.944 26.7999 -40.2336
ltibia 43.4361
lfoot -556.989 6.69013
ltoes 9.10828
982
root 17.1335 7.16956 -7.32577 -337.017 -13.5091 8.41426
lowerback 33.1165 -1.51076 1.18384
upperback 16.5565 -1.85127 -3.94686
thorax 0.946583 -0.651308 -4.22491
lowerneck 3.12881 4.24706 2.5928
upperneck -35.1568 5.36772 -5.04242
head -11.7669 2.77452 -2.93425
rclavicle 3.37934e-014 3.69739e-014
rhumerus 33.4575 21.334 -72.3456
rradius 39.5885
rwrist 11.3171
rhand -42.9083 -82.0749
rfingers 7.12502
rthumb -15.77 -608.547
lclavicle 3.37934e-014 3.69739e-014
lhumerus 47.8035 -25.2125 30.262
lradius 47.2786
lwrist 7.33321
lhand -48.247 -51.2087
lfingers 7.12502
lthumb -20.9058 -22.3153
rfemur -132.449 -31.8225 43.1502
rtibia 14.7453
rfoot -213.487 10.9996
rtoes -11.5481
lfemur -141.896 26.6511 -40.1545
ltibia 43.3281
lfoot -557.057 6.67232
ltoes 9.30575
983
root 17.1442 7.16154 -7.31745 -337.035 -13.4243 8.4207
lowerback 33.0353 -1.59203 1.32649
upperback 16.5872 -1.90997 -3.93595
thorax 1.0011 -0.670577 -4.27448
lowerneck 2.99842 4.08652 2.41673
upperneck -35.0486 5.16792 -4.77922
head -11.7228 2.67008 -2.77558
rclavicle -2.26615e-014 -1.28216e-014
rhumerus 33.459 21.4065 -72.1862
rradius 39.6639
rwrist 11.2937
rhand -42.8823 -82.0956
rfingers 7.12502
rthumb -15.745 -608.525
lclavicle -2.26615e-014 -1.28216e-014
lhumerus 47.7288 -25.238 30.2539
lradius 47.3872
lwrist 7.40306
lhand -48.2566 -51.183
lfingers 7.12502
lthumb -20.9149 -22.2905
rfemur -132.558 -32.1271 43.1723
rtibia 14.6576
rfoot -213.616 10.5807
rtoes -10.3353
lfemur -141.89 26.4938 -40.0873
ltibia 43.2182
lfoot -557.132 6.63494
ltoes 9.35257
984
root 17.1536 7.15315 -7.3098 -337.026 -13.3937 8.40859
lowerback 32.9343 -1.6392 1.42008
upperback 16.6013 -1.94189 -3.92548
thorax 1.04825 -0.68055 -4.30629
lowerneck 2.90717 3.8778 2.17452
upperneck -34.966 4.92164 -4.40023
head -11.7048 2.537 -2.56029
rclavicle 1.27222e-014 5.29761e-014
rhumerus 33.4309 21.4993 -72.0461
rradius 39.7511
rwrist 11.2658
rhand -42.8629 -82.0673
rfingers 7.12502
rthumb -15.7263 -608.552
lclavicle 1.27222e-014 5.29761e-014
lhumerus 47.6231 -25.2679 30.2745
lradius 47.4909
lwrist 7.45735
lhand -48.2452 -51.1264
lfingers 7.12502
lthumb -20.904 -22.2328
rfemur -132.705 -32.2771 43.2509
rtibia 14.6017
rfoot -213.624 10.5838
rtoes -10.3719
lfemur -141.938 26.3913 -40.0582
ltibia 43.111
lfoot -557.212 6.57891
ltoes 9.20155
985
root 17.161 7.14492 -7.30378 -337.004 -13.4358 8.38854
lowerback 32.838 -1.64174 1.43833
upperback 16.5952 -1.94139 -3.92087
thorax 1.07618 -0.680044 -4.31303
lowerneck 2.85547 3.61886 1.83651
upperneck -34.8985 4.63338 -3.86761
head -11.709 2.37685 -2.26853
rclavicle -3.89618e-014 -1.75924e-014
rhumerus 33.3698 21.6083 -71.9477
rradius 39.8388
rwrist 11.2447
rhand -42.858 -82.0009
rfingers 7.12502
rthumb -15.7216 -608.618
lclavicle -3.89618e-014 -1.75924e-014
lhumerus 47.4977 -25.3101 30.3019
lradius 47.5868
lwrist 7.49463
lhand -48.2438 -51.059
lfingers 7.12502
lthumb -20.9026 -22.1652
rfemur -132.866 -32.2603 43.3541
rtibia 14.5797
rfoot -213.521 10.9448
rtoes -11.4339
lfemur -142.027 26.3642 -40.0812
ltibia 43.0005
lfoot -557.304 6.51884
ltoes 8.91308
